 <svg  version="1.0" xmlns="http://www.w3.org/2000/svg"  width="67.000000pt" height="67.000000pt" viewBox="0 0 67.000000 67.000000"  preserveAspectRatio="xMidYMid meet">  <g transform="translate(0.000000,67.000000) scale(0.100000,-0.100000)" fill="#f7d027" stroke="none"> <path d="M20 335 l0 -325 100 0 100 0 0 83 c0 80 -12 129 -24 97 -3 -8 -7 -46 -8 -85 l-3 -70 -65 0 -65 0 -3 294 c-2 229 1 296 10 303 15 9 89 11 112 2 13 -5 16 -22 16 -83 0 -81 12 -121 23 -79 4 12 7 60 7 106 l0 82 -100 0 -100 0 0 -325z"/> <path d="M302 547 c-44 -62 -79 -113 -77 -115 9 -9 46 28 95 96 80 110 82 112 140 112 35 0 50 -4 50 -14 0 -12 -45 -85 -59 -96 -26 -19 -121 -169 -121 -190 0 -34 83 -148 112 -155 13 -3 57 -6 98 -7 l75 -3 0 -70 0 -70 -101 -3 -100 -3 -54 63 c-65 76 -118 128 -131 128 -13 0 1 -19 91 -123 l75 -87 128 0 127 0 0 101 0 101 -102 -3 -102 -3 -54 68 c-30 38 -51 71 -45 75 5 3 51 64 103 136 51 72 102 140 113 152 l20 22 -100 0 -101 -1 -80 -111z"/> </g> </svg> 